<svg xmlns="http://www.w3.org/2000/svg" viewBox="0 0 96 96" role="img" aria-labelledby="title desc">
  <title id="title">Conti Practice Room Logo</title>
  <desc id="desc">A blue and violet setlist practice icon with a play symbol and song lines.</desc>
  <defs>
    <linearGradient id="logoGradient" x1="12" y1="10" x2="84" y2="88" gradientUnits="userSpaceOnUse">
      <stop offset="0" stop-color="#2563eb" />
      <stop offset="0.58" stop-color="#4f46e5" />
      <stop offset="1" stop-color="#7c3aed" />
    </linearGradient>
    <linearGradient id="shineGradient" x1="28" y1="16" x2="72" y2="86" gradientUnits="userSpaceOnUse">
      <stop offset="0" stop-color="#ffffff" stop-opacity="0.42" />
      <stop offset="1" stop-color="#ffffff" stop-opacity="0" />
    </linearGradient>
  </defs>
  <rect x="6" y="6" width="84" height="84" rx="24" fill="url(#logoGradient)" />
  <path d="M20 22c7-7 20-10 34-8 13 2 24 8 30 18v34c-7 12-20 18-37 17-15-1-27-7-35-18V33c2-4 5-8 8-11Z" fill="url(#shineGradient)" />
  <path d="M36 31.5c0-3.1 3.3-5.1 6-3.6l24 13.8c2.7 1.6 2.7 5.5 0 7.1L42 62.6c-2.7 1.5-6-.4-6-3.6V31.5Z" fill="#ffffff" />
  <path d="M26 28h13.5c1.9 0 3.5 1.6 3.5 3.5S41.4 35 39.5 35H26c-1.9 0-3.5-1.6-3.5-3.5S24.1 28 26 28Z" fill="#dbeafe" opacity="0.9" />
  <path d="M26 47h10c1.9 0 3.5 1.6 3.5 3.5S37.9 54 36 54H26c-1.9 0-3.5-1.6-3.5-3.5S24.1 47 26 47Z" fill="#dbeafe" opacity="0.9" />
  <path d="M26 66h34c1.9 0 3.5 1.6 3.5 3.5S61.9 73 60 73H26c-1.9 0-3.5-1.6-3.5-3.5S24.1 66 26 66Z" fill="#dbeafe" opacity="0.9" />
  <circle cx="72" cy="24" r="5" fill="#bfdbfe" opacity="0.95" />
</svg>
