<svg xmlns="http://www.w3.org/2000/svg" viewBox="0 0 96 96" role="img" aria-labelledby="title desc">
  <title id="title">Conti Practice Room Logo</title>
  <desc id="desc">A cute blue and violet setlist logo with a play symbol, song lines, sparkles, and a tiny smile.</desc>
  <defs>
    <linearGradient id="bgGradient" x1="12" y1="8" x2="84" y2="90" gradientUnits="userSpaceOnUse">
      <stop offset="0" stop-color="#60a5fa" />
      <stop offset="0.52" stop-color="#6366f1" />
      <stop offset="1" stop-color="#a78bfa" />
    </linearGradient>
    <linearGradient id="paperGradient" x1="30" y1="20" x2="66" y2="78" gradientUnits="userSpaceOnUse">
      <stop offset="0" stop-color="#ffffff" />
      <stop offset="1" stop-color="#eef2ff" />
    </linearGradient>
    <linearGradient id="playGradient" x1="38" y1="34" x2="62" y2="59" gradientUnits="userSpaceOnUse">
      <stop offset="0" stop-color="#2563eb" />
      <stop offset="1" stop-color="#7c3aed" />
    </linearGradient>
  </defs>
  <rect x="5" y="7" width="86" height="84" rx="28" fill="url(#bgGradient)" />
  <circle cx="20" cy="24" r="10" fill="#dbeafe" opacity="0.32" />
  <circle cx="76" cy="73" r="14" fill="#f5d0fe" opacity="0.26" />
  <path d="M25 29c0-7 6-12 13-11l27 4c6 .9 10 6 10 12v34c0 7-6 12-13 11l-27-4c-6-.9-10-6-10-12V29Z" fill="url(#paperGradient)" />
  <path d="M34 26c0-3.3 2.7-6 6-6h14c3.3 0 6 2.7 6 6v1H34v-1Z" fill="#bfdbfe" />
  <path d="M39 38c0-2.4 2.6-3.9 4.6-2.6l20 12.2c2 1.2 2 4.1-.1 5.3L43.6 64.4c-2 1.2-4.6-.3-4.6-2.6V38Z" fill="url(#playGradient)" />
  <path d="M34 31h18c1.8 0 3.2 1.4 3.2 3.2S53.8 37.4 52 37.4H34c-1.8 0-3.2-1.4-3.2-3.2S32.2 31 34 31Z" fill="#dbeafe" />
  <path d="M33 67h25c1.7 0 3 1.3 3 3s-1.3 3-3 3H33c-1.7 0-3-1.3-3-3s1.3-3 3-3Z" fill="#c7d2fe" />
  <circle cx="35" cy="52" r="2.3" fill="#93c5fd" />
  <circle cx="62" cy="58" r="2.3" fill="#c084fc" />
  <path d="M44 68c2.8 2.4 6.3 2.4 9 0" fill="none" stroke="#4f46e5" stroke-width="3" stroke-linecap="round" />
  <path d="M74 21l2.1 4.4 4.9.7-3.5 3.4.8 4.8-4.3-2.3-4.3 2.3.8-4.8-3.5-3.4 4.9-.7L74 21Z" fill="#fef3c7" />
  <path d="M20 58l1.3 2.8 3.1.4-2.2 2.2.5 3-2.7-1.4-2.7 1.4.5-3-2.2-2.2 3.1-.4L20 58Z" fill="#f5d0fe" />
  <circle cx="24" cy="78" r="3.5" fill="#bfdbfe" />
</svg>
