<svg xmlns="http://www.w3.org/2000/svg" viewBox="0 0 64 64">
  <defs>
    <linearGradient id="bgGradient" x1="7" y1="5" x2="57" y2="60" gradientUnits="userSpaceOnUse">
      <stop offset="0" stop-color="#60a5fa" />
      <stop offset="0.55" stop-color="#6366f1" />
      <stop offset="1" stop-color="#a78bfa" />
    </linearGradient>
    <linearGradient id="paperGradient" x1="20" y1="14" x2="45" y2="52" gradientUnits="userSpaceOnUse">
      <stop offset="0" stop-color="#ffffff" />
      <stop offset="1" stop-color="#eef2ff" />
    </linearGradient>
  </defs>
  <rect x="4" y="5" width="56" height="56" rx="18" fill="url(#bgGradient)" />
  <circle cx="14" cy="16" r="6" fill="#dbeafe" opacity="0.32" />
  <path d="M17 20c0-4.7 4-8.2 8.6-7.4l18 2.9c4.3.7 7.4 4.4 7.4 8.8v22.2c0 4.8-4.2 8.5-8.9 7.4l-17.8-4c-4-.9-6.8-4.5-6.8-8.6V20Z" fill="url(#paperGradient)" />
  <path d="M28 25.5c0-2 2.2-3.3 4-2.2l14 8.5c1.8 1.1 1.8 3.7 0 4.8l-14 8.1c-1.8 1-4-.3-4-2.3V25.5Z" fill="#4f46e5" />
  <path d="M23 21h11c1.5 0 2.7 1.2 2.7 2.7S35.5 26.4 34 26.4H23c-1.5 0-2.7-1.2-2.7-2.7S21.5 21 23 21Z" fill="#dbeafe" />
  <path d="M23 45h16c1.5 0 2.7 1.2 2.7 2.7S40.5 50.4 39 50.4H23c-1.5 0-2.7-1.2-2.7-2.7S21.5 45 23 45Z" fill="#c7d2fe" />
  <circle cx="25" cy="36" r="1.8" fill="#93c5fd" />
  <circle cx="44" cy="40" r="1.8" fill="#c084fc" />
  <path d="M32 47c2 1.7 4.6 1.7 6.6 0" fill="none" stroke="#4f46e5" stroke-width="2.5" stroke-linecap="round" />
  <path d="M48 10l1.4 2.9 3.2.5-2.3 2.2.5 3.2-2.8-1.5-2.8 1.5.5-3.2-2.3-2.2 3.2-.5L48 10Z" fill="#fef3c7" />
</svg>
